<svg aria-hidden="true" style="position: absolute; width: 0; height: 0; overflow: hidden;" version="1.1" xmlns="http://www.w3.org/2000/svg" xmlns:xlink="http://www.w3.org/1999/xlink">
<defs>
<symbol id="icon-keyboard_arrow_up" viewBox="0 0 24 24">
<path d="M7.406 15.422l-1.406-1.406 6-6 6 6-1.406 1.406-4.594-4.594z"></path>
</symbol>
<symbol id="icon-keyboard_arrow_right" viewBox="0 0 24 24">
<path d="M8.578 16.594l4.594-4.594-4.594-4.594 1.406-1.406 6 6-6 6z"></path>
</symbol>
<symbol id="icon-keyboard_arrow_left" viewBox="0 0 24 24">
<path d="M15.422 16.594l-1.406 1.406-6-6 6-6 1.406 1.406-4.594 4.594z"></path>
</symbol>
<symbol id="icon-keyboard_arrow_down" viewBox="0 0 24 24">
<path d="M7.406 8.578l4.594 4.594 4.594-4.594 1.406 1.406-6 6-6-6z"></path>
</symbol>
<symbol id="icon-move" viewBox="0 0 24 24">
<path d="M11 4.414v6.586h-6.586l1.293-1.293c0.391-0.391 0.391-1.024 0-1.414s-1.024-0.391-1.414 0l-3 3c-0.181 0.181-0.293 0.431-0.293 0.707 0 0.136 0.027 0.265 0.076 0.383s0.121 0.228 0.217 0.324l3 3c0.391 0.391 1.024 0.391 1.414 0s0.391-1.024 0-1.414l-1.293-1.293h6.586v6.586l-1.293-1.293c-0.391-0.391-1.024-0.391-1.414 0s-0.391 1.024 0 1.414l3 3c0.096 0.096 0.206 0.168 0.324 0.217s0.247 0.076 0.383 0.076c0.13 0 0.261-0.025 0.383-0.076 0.118-0.049 0.228-0.121 0.324-0.217l3-3c0.391-0.391 0.391-1.024 0-1.414s-1.024-0.391-1.414 0l-1.293 1.293v-6.586h6.586l-1.293 1.293c-0.391 0.391-0.391 1.024 0 1.414s1.024 0.391 1.414 0l3-3c0.096-0.096 0.168-0.206 0.217-0.324 0.15-0.362 0.078-0.795-0.217-1.090l-3-3c-0.391-0.391-1.024-0.391-1.414 0s-0.391 1.024 0 1.414l1.293 1.293h-6.586v-6.586l1.293 1.293c0.391 0.391 1.024 0.391 1.414 0s0.391-1.024 0-1.414l-3-3c-0.092-0.092-0.202-0.166-0.324-0.217-0.245-0.101-0.521-0.101-0.766 0-0.118 0.049-0.228 0.121-0.324 0.217l-3 3c-0.391 0.391-0.391 1.024 0 1.414s1.024 0.391 1.414 0z"></path>
</symbol>
<symbol id="icon-move1" viewBox="0 0 32 32">
<path d="M17.984 5.921v8.063h8v-4l6.016 6.016-6.016 6.015v-4.093h-8v8.063h4.031l-6.015 6.015-6.016-6.015h4v-8.063h-8v4.062l-5.984-5.984 5.984-5.984v3.968h8v-8.063h-3.906l5.922-5.921 5.922 5.921h-3.938z"></path>
</symbol>
<symbol id="icon-pencil" viewBox="0 0 32 32">
<path d="M27 0c2.761 0 5 2.239 5 5 0 1.126-0.372 2.164-1 3l-2 2-7-7 2-2c0.836-0.628 1.874-1 3-1zM2 23l-2 9 9-2 18.5-18.5-7-7-18.5 18.5zM22.362 11.362l-14 14-1.724-1.724 14-14 1.724 1.724z"></path>
</symbol>
<symbol id="icon-bin" viewBox="0 0 32 32">
<path d="M4 10v20c0 1.1 0.9 2 2 2h18c1.1 0 2-0.9 2-2v-20h-22zM10 28h-2v-14h2v14zM14 28h-2v-14h2v14zM18 28h-2v-14h2v14zM22 28h-2v-14h2v14z"></path>
<path d="M26.5 4h-6.5v-2.5c0-0.825-0.675-1.5-1.5-1.5h-7c-0.825 0-1.5 0.675-1.5 1.5v2.5h-6.5c-0.825 0-1.5 0.675-1.5 1.5v2.5h26v-2.5c0-0.825-0.675-1.5-1.5-1.5zM18 4h-6v-1.975h6v1.975z"></path>
</symbol>
</defs>
</svg>
